# xmcd
#
# Track frame offsets: 
#        150
#        27855
#        52364
#        71089
#        105242
#        118253
#        152475
#        168831
#        197742
#        219738
#        231175
#
# Disc length: 3262 seconds
#
# Revision: 0
# Processed by: cddbd v1.5.2PL0 Copyright (c) Steve Scherf et al.
# Submitted via: ExactAudioCopy v0.95b4
#
DISCID=990cbc0b
DTITLE=Cheap TeQuila - road to nowhere
DYEAR=2009
DGENRE=
TTITLE0=Road to nowhere
TTITLE1=Give it up
TTITLE2=Running blue
TTITLE3=Lonesome dirty blues
TTITLE4=The stumble
TTITLE5=Gethoe blues
TTITLE6=Fast and free
TTITLE7=Whiskey´s my only friend
TTITLE8=Messin´with the kid
TTITLE9=Mixed up blues
TTITLE10=Stormy weather
EXTD=
EXTT0=
EXTT1=
EXTT2=
EXTT3=
EXTT4=
EXTT5=
EXTT6=
EXTT7=
EXTT8=
EXTT9=
EXTT10=
PLAYORDER=
